<?xml version="1.0" standalone="no"?>
<!DOCTYPE svg PUBLIC "-//W3C//DTD SVG 20010904//EN"
 "http://www.w3.org/TR/2001/REC-SVG-20010904/DTD/svg10.dtd">
<svg version="1.0" xmlns="http://www.w3.org/2000/svg"
 width="1510.000000pt" height="1510.000000pt" viewBox="0 0 1510.000000 1510.000000"
 preserveAspectRatio="xMidYMid meet">
<metadata>
Created by potrace 1.11, written by Peter Selinger 2001-2013
</metadata>
<g transform="translate(0.000000,1510.000000) scale(0.100000,-0.100000)"
fill="#000000" stroke="none">
<path d="M6495 14287 c-133 -45 -202 -118 -404 -434 -508 -795 -856 -1610
-1130 -2648 -364 -1380 -738 -3147 -985 -4650 -37 -220 -69 -413 -71 -430 -5
-30 -9 -31 -228 -103 -343 -112 -842 -318 -1171 -483 -482 -242 -960 -587
-1365 -984 -498 -489 -754 -877 -837 -1270 -8 -38 -17 -124 -21 -190 -10 -196
32 -385 124 -570 129 -256 423 -549 764 -760 566 -351 1195 -549 1969 -622
255 -24 808 -24 1040 0 1238 128 2360 560 3605 1390 115 77 288 196 385 265
473 338 1370 1036 2050 1596 558 459 868 711 983 801 l128 99 82 -2 c45 -2
161 6 257 18 419 50 431 55 989 402 301 188 308 193 428 244 180 76 380 128
624 159 165 22 568 30 794 16 327 -20 389 13 297 155 -218 336 -648 569 -1286
699 -395 80 -736 108 -1301 108 -608 1 -1007 -30 -1665 -129 -129 -19 -236
-37 -239 -39 -4 -5 88 -215 127 -287 l25 -48 -21 -70 c-20 -66 -70 -159 -130
-242 -28 -40 -117 -118 -134 -118 -5 0 -16 -7 -24 -15 -35 -34 -206 -54 -224
-26 -4 8 -19 16 -32 18 -13 2 -28 10 -34 18 -6 8 -14 12 -18 8 -9 -9 -86 -10
-86 0 0 8 -59 3 -129 -9 -24 -5 -29 -9 -20 -16 10 -7 7 -7 -8 -3 -12 3 -61 -1
-109 -9 -89 -16 -116 -26 -73 -27 24 0 24 0 2 -9 -12 -5 -38 -7 -58 -4 -23 3
-34 1 -30 -6 4 -6 -5 -10 -19 -10 -14 0 -26 4 -26 9 0 4 -12 6 -26 3 -16 -3
-21 -7 -14 -12 8 -5 3 -9 -12 -13 -33 -9 -47 -7 -23 3 16 7 17 9 3 9 -9 1 -23
-5 -30 -12 -14 -14 -94 -38 -145 -42 -17 -2 -62 -18 -100 -36 -37 -18 -73 -32
-80 -31 -7 2 -15 -8 -19 -22 -3 -13 -17 -33 -30 -45 -13 -11 -24 -27 -24 -34
0 -7 -13 -21 -30 -30 -16 -10 -30 -24 -30 -32 0 -19 -93 -115 -112 -115 -7 0
-18 4 -24 10 -6 6 -21 6 -42 1 -18 -5 -32 -8 -32 -5 0 9 -39 -36 -70 -82 -19
-27 -38 -52 -44 -56 -6 -4 -8 -8 -4 -8 4 0 -4 -16 -17 -36 -22 -33 -30 -54
-26 -76 0 -5 -3 -8 -9 -8 -5 0 -10 -11 -10 -25 0 -14 -5 -25 -11 -25 -5 0 -8
-3 -6 -7 11 -20 -125 -209 -192 -267 -13 -12 -55 -50 -93 -86 -38 -36 -74 -65
-80 -65 -5 0 -15 -8 -22 -18 -7 -9 -19 -17 -25 -17 -7 0 -9 -4 -6 -10 3 -5 1
-10 -5 -10 -11 0 -15 -2 -62 -42 -15 -13 -44 -34 -64 -48 -20 -14 -45 -33 -56
-44 -11 -10 -27 -19 -37 -21 -9 -1 -15 -8 -13 -14 1 -6 -6 -11 -16 -11 -11 0
-27 -9 -37 -20 -10 -11 -24 -20 -32 -20 -8 0 -12 -4 -9 -8 3 -5 -12 -16 -32
-25 -20 -9 -52 -30 -69 -46 -18 -16 -33 -28 -33 -25 0 3 -7 -1 -15 -8 -33 -30
-45 -38 -55 -38 -5 0 -10 -4 -10 -10 0 -5 -7 -10 -15 -10 -9 0 -18 -7 -21 -15
-4 -8 -11 -15 -17 -15 -6 0 -31 -17 -56 -38 -57 -47 -101 -75 -101 -65 0 5 -4
3 -8 -3 -6 -9 -110 -70 -211 -123 -14 -8 -44 -26 -66 -40 -70 -44 -103 -60
-213 -102 -59 -22 -111 -45 -117 -50 -5 -5 -17 -9 -26 -9 -9 0 -22 -6 -28 -14
-6 -7 -33 -16 -60 -20 -27 -4 -51 -10 -53 -15 -7 -17 -271 -81 -438 -105 -170
-25 -438 -46 -590 -46 -128 0 -443 28 -498 44 -9 3 -34 7 -55 10 -118 18 -306
81 -442 148 -97 49 -247 143 -253 160 -2 4 -9 8 -15 8 -24 0 -197 182 -197
207 0 6 -3 13 -7 15 -5 2 -21 30 -37 63 -16 33 -32 67 -37 76 -23 47 -31 185
-21 328 7 80 17 239 24 353 6 114 13 206 15 204 3 -2 10 -30 18 -63 30 -130
91 -231 204 -342 111 -107 191 -164 326 -231 129 -65 371 -140 514 -160 332
-46 701 -39 1045 20 173 30 444 100 558 144 35 14 106 41 158 61 116 46 453
215 581 292 438 266 969 737 1390 1234 55 64 169 131 302 178 80 28 344 86
647 141 155 28 265 63 374 116 111 56 146 81 197 147 21 29 44 58 49 65 8 8 7
12 0 12 -6 0 -8 5 -5 10 3 6 2 10 -2 10 -5 0 -10 17 -12 38 -4 47 -8 77 -10
77 -2 0 -4 8 -6 18 -6 32 6 17 31 -38 14 -30 27 -55 29 -55 7 0 -8 35 -89 208
-284 605 -638 1291 -958 1852 -150 263 -397 670 -421 694 -6 7 -39 56 -72 110
-33 53 -96 147 -139 209 -105 147 -206 296 -206 302 0 5 -168 235 -230 315
-15 20 -50 67 -78 105 -28 39 -58 77 -67 86 -8 9 -15 20 -15 25 0 5 -20 30
-45 56 -25 26 -45 52 -45 58 0 6 -6 13 -14 16 -7 3 -19 24 -26 47 -13 43 -22
68 -45 122 -26 60 -47 126 -42 131 3 3 -15 65 -40 137 -24 73 -46 137 -47 143
-1 7 -8 19 -15 28 -7 9 -11 16 -8 16 3 0 -8 29 -24 65 -33 69 -58 161 -58 210
0 38 30 75 61 75 12 0 45 -7 72 -15 27 -8 102 -18 165 -21 l116 -7 100 -65
c55 -36 129 -83 165 -104 36 -21 72 -43 80 -48 8 -5 47 -27 85 -49 39 -21 104
-68 145 -103 180 -155 303 -232 477 -305 57 -23 118 -53 136 -66 46 -35 127
-74 170 -82 35 -7 40 -4 82 41 94 102 117 188 79 284 -21 52 -127 196 -254
346 -118 138 -637 657 -880 879 -102 93 -268 250 -370 350 -102 99 -275 263
-385 364 -110 102 -301 284 -425 406 -231 227 -307 289 -413 332 -73 30 -176
38 -232 20z m45 -387 c0 -5 6 -10 13 -10 56 0 123 -84 104 -131 -5 -13 -11
-32 -12 -41 -1 -16 -52 -68 -66 -68 -4 0 -19 -10 -34 -22 -15 -12 -41 -23 -58
-25 -17 -2 -41 -5 -54 -7 -12 -3 -30 2 -38 10 -8 9 -15 13 -15 9 0 -4 -10 6
-23 22 -26 31 -49 107 -43 138 3 11 5 22 5 25 3 14 60 68 86 80 63 30 135 40
135 20z m-4970 -12192 c0 -3 8 -5 17 -4 10 2 33 -3 50 -11 18 -7 33 -11 33 -8
0 4 6 3 13 -2 6 -4 14 -8 17 -9 26 -5 76 -20 130 -39 36 -13 72 -23 80 -23 8
0 29 -5 45 -10 126 -42 268 -79 337 -88 21 -3 56 -11 79 -19 23 -8 45 -13 49
-10 4 3 48 -4 96 -14 49 -10 118 -22 154 -25 36 -4 74 -9 85 -12 11 -2 36 -6
55 -8 19 -3 59 -9 89 -15 29 -6 57 -8 62 -5 6 3 16 0 24 -6 11 -9 15 -9 15 -1
0 8 7 7 23 -3 25 -15 233 -40 318 -37 31 1 87 -5 124 -14 37 -8 85 -16 106
-17 49 -2 50 -15 2 -24 -36 -7 -447 1 -553 11 -115 10 -146 13 -175 19 -16 3
-82 12 -145 21 -123 16 -184 28 -410 82 -179 43 -291 78 -490 155 -184 72
-299 127 -258 125 16 -1 28 -5 28 -9z"/>
</g>
</svg>
